<svg xmlns="http://www.w3.org/2000/svg" version="1.1" xmlns:xlink="http://www.w3.org/1999/xlink" xmlns:svgjs="http://svgjs.dev/svgjs" width="2000" height="499" viewBox="0 0 2000 499"><g transform="matrix(1,0,0,1,-1.2121212121212466,0.8913365995283016)"><svg viewBox="0 0 396 99" data-background-color="#ffffff" preserveAspectRatio="xMidYMid meet" height="499" width="2000" xmlns="http://www.w3.org/2000/svg" xmlns:xlink="http://www.w3.org/1999/xlink"><g id="tight-bounds" transform="matrix(1,0,0,1,0.2400000000000091,-0.17683832335330862)"><svg viewBox="0 0 395.52 99.35367664670659" height="99.35367664670659" width="395.52"><g><svg viewBox="0 0 395.52 99.35367664670659" height="99.35367664670659" width="395.52"><g><svg viewBox="0 0 395.52 99.35367664670659" height="99.35367664670659" width="395.52"><g id="textblocktransform"><svg viewBox="0 0 395.52 99.35367664670659" height="99.35367664670659" width="395.52" id="textblock"><g><svg viewBox="0 0 395.52 99.35367664670659" height="99.35367664670659" width="395.52"><g transform="matrix(1,0,0,1,0,0)"><svg width="395.52" viewBox="2.85 -26.55 166.98000000000002 41.95" height="99.35367664670659" data-palette-color="#4a596d"><path d="M3.05 2.05L3.05 2.05Q2.85 2.05 2.85 1.9L2.85 1.9Q2.85 1.25 6.25-0.5L6.25-0.5Q7.1-0.9 7.8-1.33 8.5-1.75 9-2.1L9-2.1Q12.05-4.35 12.05-6L12.05-6Q12.05-7.25 9.6-7.25L9.6-7.25Q3.9-7.35 3.9-9.75L3.9-9.75Q3.9-10.8 4.8-11.75L4.8-11.75Q5.85-12.95 8.3-14.05L8.3-14.05Q10.95-15.25 13.15-15.25L13.15-15.25Q15.1-15.25 16.1-14.3L16.1-14.3Q16.55-13.85 16.55-13.2L16.55-13.2Q16.55-12.5 16.1-11.95 15.65-11.4 15.1-11.4L15.1-11.4Q14.1-11.4 14-12.75L14-12.75Q14-13.7 13.7-13.85 13.4-14 12.1-14L12.1-14Q10.45-14 8.4-12.9L8.4-12.9Q5.95-11.65 6.1-9.9L6.1-9.9Q6.2-8.9 9.9-8.9L9.9-8.9Q14.95-8.9 14.95-6.45L14.95-6.45Q14.95-3.8 10.6-1.15L10.6-1.15Q7.85 0.55 3.9 1.85L3.9 1.85Q3.35 2.05 3.05 2.05ZM29.9 0.55L29.9 0.55Q28.9 0.55 28.07-0.1 27.25-0.75 27.1-1.35L27.1-1.35Q26.95-2.05 28.95-6.35L28.95-6.35 27.8-4.7Q27.05-3.6 26.3-2.75 25.55-1.9 24.9-1.25L24.9-1.25Q23 0.55 21.7 0.25L21.7 0.25Q18.7-0.45 18.7-3.15L18.7-3.15Q18.7-5.3 20.75-8.65L20.75-8.65Q21.4-9.65 22.4-10.65 23.4-11.65 24.7-12.6L24.7-12.6Q28.05-15.05 31.15-15.05L31.15-15.05Q33.05-15.05 34.75-14.05L34.75-14.05Q35.3-13.65 35.3-13.2L35.3-13.2Q35.3-12.85 35.1-12.85L35.1-12.85Q35.05-12.85 35-12.9L35-12.9Q33.95-14.05 32.2-14.05L32.2-14.05Q30.15-14.05 27.75-12.5 25.35-10.95 23.45-8.35L23.45-8.35Q20.75-4.6 20.75-2.25L20.75-2.25Q20.75-0.9 21.7-0.55L21.7-0.55Q22.9-0.05 26.8-5L26.8-5Q28.4-6.95 29.47-8.5 30.55-10.05 31.2-11.15L31.2-11.15Q31.5-11.7 32.3-11.7L32.3-11.7Q33.8-11.7 33.8-10.8L33.8-10.8Q33.8-10.65 33.75-10.6L33.75-10.6Q29.4-3.7 29.4-1.25L29.4-1.25Q29.4-0.65 29.75-0.6L29.75-0.6Q30.8-0.3 33.25-2.15L33.25-2.15Q36.2-4.35 38.8-8L38.8-8Q39.35-8.75 39.8-8.75L39.8-8.75Q39.95-8.75 39.95-8.65L39.95-8.65Q39.95-8.4 39.5-7.7L39.5-7.7Q38.45-6.05 37.17-4.6 35.9-3.15 34.35-1.9L34.35-1.9Q32.15-0.05 30.75 0.4L30.75 0.4Q30.4 0.55 29.9 0.55ZM35.3 0.6L35.3 0.6Q34.6 0.6 34.6 0.15L34.6 0.15Q34.6 0.1 34.7-0.2L34.7-0.2Q37.05-4.7 40.25-13.05L40.25-13.05Q40.6-13.95 41.45-14.63 42.3-15.3 42.9-15.3L42.9-15.3Q43.55-15.3 43.45-14.6L43.45-14.6Q42.95-13.55 42.25-11.9 41.55-10.25 40.6-8.05L40.6-8.05Q42-9.9 44.75-12.2L44.75-12.2Q46.15-13.35 47.17-14.1 48.2-14.85 48.9-15.2L48.9-15.2Q49.6-15.55 50.45-15.55L50.45-15.55Q51.45-15.55 52.15-15.05 52.84-14.55 52.84-13.9L52.84-13.9Q52.84-13.5 52.47-13.03 52.09-12.55 51.7-12.55L51.7-12.55Q51.5-12.55 50.87-12.98 50.25-13.4 49.55-13.4L49.55-13.4Q48.8-13.4 47.8-12.95L47.8-12.95Q41.45-10.1 36.85-0.1L36.85-0.1Q36.55 0.6 35.3 0.6ZM61.34 0.55L61.34 0.55Q60.34 0.55 59.52-0.1 58.69-0.75 58.54-1.35L58.54-1.35Q58.39-2.05 60.39-6.35L60.39-6.35 59.24-4.7Q58.49-3.6 57.74-2.75 56.99-1.9 56.34-1.25L56.34-1.25Q54.44 0.55 53.14 0.25L53.14 0.25Q50.14-0.45 50.14-3.15L50.14-3.15Q50.14-5.3 52.19-8.65L52.19-8.65Q52.84-9.65 53.84-10.65 54.84-11.65 56.14-12.6L56.14-12.6Q59.49-15.05 62.59-15.05L62.59-15.05Q64.49-15.05 66.19-14.05L66.19-14.05Q66.74-13.65 66.74-13.2L66.74-13.2Q66.74-12.85 66.54-12.85L66.54-12.85Q66.49-12.85 66.44-12.9L66.44-12.9Q65.39-14.05 63.64-14.05L63.64-14.05Q61.59-14.05 59.19-12.5 56.79-10.95 54.89-8.35L54.89-8.35Q52.19-4.6 52.19-2.25L52.19-2.25Q52.19-0.9 53.14-0.55L53.14-0.55Q54.34-0.05 58.24-5L58.24-5Q59.84-6.95 60.92-8.5 61.99-10.05 62.64-11.15L62.64-11.15Q62.94-11.7 63.74-11.7L63.74-11.7Q65.24-11.7 65.24-10.8L65.24-10.8Q65.24-10.65 65.19-10.6L65.19-10.6Q60.84-3.7 60.84-1.25L60.84-1.25Q60.84-0.65 61.19-0.6L61.19-0.6Q62.24-0.3 64.69-2.15L64.69-2.15Q67.64-4.35 70.24-8L70.24-8Q70.79-8.75 71.24-8.75L71.24-8.75Q71.39-8.75 71.39-8.65L71.39-8.65Q71.39-8.4 70.94-7.7L70.94-7.7Q69.89-6.05 68.62-4.6 67.34-3.15 65.79-1.9L65.79-1.9Q63.59-0.05 62.19 0.4L62.19 0.4Q61.84 0.55 61.34 0.55ZM71.64 0.95L71.64 0.95Q68.09 0.2 68.09-2.35L68.09-2.35Q68.09-3.85 69.04-6.7L69.04-6.7Q69.74-8.85 70.97-11.63 72.19-14.4 74.04-17.8L74.04-17.8Q78.49-26.15 80.79-26.5L80.79-26.5Q80.99-26.55 81.44-26.55L81.44-26.55Q83.89-26.55 83.89-24.25L83.89-24.25Q83.89-21.1 78.59-15.3L78.59-15.3Q75.64-12 72.09-9.45L72.09-9.45Q69.99-4.45 69.99-2.1L69.99-2.1Q69.99-0.55 70.94-0.25L70.94-0.25Q71.69-0.05 74.44-2.05L74.44-2.05Q77.59-4.35 79.84-7.65L79.84-7.65Q80.19-8.15 80.49-8.15L80.49-8.15Q80.69-8.15 80.69-7.95L80.69-7.95Q80.69-7.75 80.44-7.35L80.44-7.35Q78.54-4.3 75.49-1.55L75.49-1.55Q72.54 1.15 71.64 0.95ZM72.64-10.8L72.64-10.8Q74.44-12.15 75.64-13.5L75.64-13.5 78.59-17Q82.69-21.85 82.69-24.15L82.69-24.15Q82.69-24.6 82.19-24.6L82.19-24.6Q81.34-24.6 79.49-22.15L79.49-22.15Q78.94-21.35 78.34-20.6 77.74-19.85 77.14-19.05L77.14-19.05Q76.39-17.95 75.77-16.9 75.14-15.85 74.59-14.75L74.59-14.75Q74.44-14.55 73.97-13.55 73.49-12.55 72.64-10.8ZM84.84 15.4L84.84 15.4Q82.94 15.4 82.94 13.5L82.94 13.5Q82.94 11.95 84.29 9.8L84.29 9.8Q85.14 8.45 86.46 6.93 87.79 5.4 89.64 3.7L89.64 3.7Q92.94 0.5 96.64-1.85L96.64-1.85Q97.09-2.95 97.64-4.55 98.19-6.15 98.89-8.35L98.89-8.35Q98.74-8 97.81-6.93 96.89-5.85 95.14-3.95L95.14-3.95Q90.94 0.7 89.19 0.25L89.19 0.25Q86.49-0.45 86.49-2.75L86.49-2.75Q86.49-5 89.14-8.65L89.14-8.65Q89.89-9.65 90.99-10.65 92.09-11.65 93.49-12.6L93.49-12.6Q97.04-15.05 100.19-15.05L100.19-15.05Q102.14-15.05 103.74-14.05L103.74-14.05Q104.19-13.75 104.19-13.3L104.19-13.3Q104.19-12.85 103.99-12.85L103.99-12.85Q103.94-12.85 103.89-12.9L103.89-12.9Q102.89-14.05 101.14-14.05L101.14-14.05Q99.09-14.05 96.54-12.5 93.99-10.95 91.84-8.35L91.84-8.35Q88.49-4.25 88.49-1.95L88.49-1.95Q88.49-0.9 89.29-0.55L89.29-0.55Q90.39-0.1 94.84-5L94.84-5Q96.59-6.95 97.86-8.5 99.14-10.05 99.89-11.15L99.89-11.15Q100.24-11.65 100.89-11.65L100.89-11.65Q102.09-11.65 102.09-10.75L102.09-10.75Q102.09-10.55 101.94-10.3L101.94-10.3Q101.59-9.3 100.99-7.63 100.39-5.95 99.54-3.6L99.54-3.6Q101.14-4.55 102.09-4.55L102.09-4.55Q102.49-4.55 102.49-4.35L102.49-4.35Q102.49-3.85 101.24-3.4L101.24-3.4Q100.74-3.2 100.16-2.95 99.59-2.7 98.94-2.35L98.94-2.35Q95.44 6.35 90.49 12L90.49 12Q87.49 15.4 84.84 15.4ZM85.89 14.35L85.89 14.35Q86.84 14.35 88.19 12.8L88.19 12.8Q92.64 7.8 95.99-0.3L95.99-0.3Q89.34 4.65 86.09 10L86.09 10Q84.99 11.75 84.99 13.1L84.99 13.1Q84.99 14.35 85.89 14.35ZM114.78 0.35L114.78 0.35Q113.48 0.05 112.33-1.05L112.33-1.05Q112.08-1.3 112.08-1.8L112.08-1.8Q112.08-3.8 113.88-7.4L113.88-7.4Q112.48-5.6 111.58-4.45 110.68-3.3 110.23-2.8L110.23-2.8Q108.28-0.55 106.98-0.1L106.98-0.1Q106.53 0.05 106.08 0.05L106.08 0.05Q104.23 0.05 103.93-1.45L103.93-1.45Q103.73-1.9 103.73-2.7L103.73-2.7Q103.73-5.15 106.98-12.05L106.98-12.05Q107.73-13.65 108.68-13.65L108.68-13.65Q109.38-13.65 110.03-12.6L110.03-12.6 107.93-8.45Q106.83-6.3 106.26-4.75 105.68-3.2 105.68-2.35L105.68-2.35Q105.68-1.15 106.48-1.15L106.48-1.15Q107.78-1.15 110.68-4.5L110.68-4.5Q112.23-6.3 113.71-8.5 115.18-10.7 116.63-13.3L116.63-13.3Q116.93-13.9 117.53-13.9L117.53-13.9Q118.03-13.9 118.51-13.48 118.98-13.05 118.88-12.85L118.88-12.85Q114.03-2.8 114.03-1.3L114.03-1.3Q114.03-0.7 114.43-0.8L114.43-0.8Q118.48-1.15 123.13-7.95L123.13-7.95Q123.38-8.4 123.68-8.45L123.68-8.45Q123.98-8.55 123.98-8.25L123.98-8.25Q123.98-8.05 123.78-7.7L123.78-7.7Q121.58-4.25 118.53-1.65L118.53-1.65Q115.83 0.6 114.78 0.35ZM118.98 13.75L118.98 13.75Q118.18 13.75 117.48 13.2L117.48 13.2Q116.68 12.5 116.73 11.7L116.73 11.7Q117.08 7.85 118.33 3.68 119.58-0.5 121.73-5.05L121.73-5.05Q124.63-11.3 128.48-16.65L128.48-16.65Q129.23-17.7 131.43-17.45L131.43-17.45Q132.03-17.4 132.03-16.9L132.03-16.9Q132.03-16.5 131.73-16.25L131.73-16.25Q128.73-14.2 125.43-7.5L125.43-7.5Q125.58-7.75 126.38-8.6 127.18-9.45 128.58-11L128.58-11Q132.13-14.75 133.83-14.75L133.83-14.75Q134.18-14.65 134.78-14.58 135.38-14.5 136.23-14.4L136.23-14.4Q137.23-14.4 137.23-12.8L137.23-12.8Q137.23-9.4 134.18-5.25L134.18-5.25Q132.58-3.05 130.03-1.2L130.03-1.2Q127.13 0.8 124.98 0.8L124.98 0.8Q122.98 0.8 121.98-1L121.98-1Q118.73 5.6 118.53 12.1L118.53 12.1Q118.53 12.65 119.23 12.9L119.23 12.9Q119.93 13.15 119.78 13.4L119.78 13.4Q119.58 13.75 118.98 13.75ZM124.08-0.75L124.08-0.75Q125.53-0.75 128.18-2.5L128.18-2.5Q129.48-3.35 130.48-4.35 131.48-5.35 132.18-6.45L132.18-6.45Q134.83-10.6 134.83-12.65L134.83-12.65Q134.83-13.6 134.08-13.6L134.08-13.6Q132.08-13.6 127.48-8.45L127.48-8.45Q123.13-3.75 123.13-1.65L123.13-1.65Q123.13-0.75 124.08-0.75ZM141.18 0.85L141.18 0.85Q137.33 0 137.33-2.65L137.33-2.65Q137.33-3.4 137.58-4.42 137.83-5.45 138.38-6.7L138.38-6.7 142.63-16.25Q141.88-16.15 140.98-16.05 140.08-15.95 138.98-15.85L138.98-15.85Q138.78-15.85 138.78-16.2L138.78-16.2Q138.78-16.9 139.03-17L139.03-17 143.23-17.6 146.48-24.2Q146.93-25.1 149.28-25.1L149.28-25.1Q150.38-25.1 150.23-24.85L150.23-24.85Q149.13-23.1 148-21.33 146.88-19.55 145.78-17.8L145.78-17.8Q145.93-17.85 146.43-17.9 146.93-17.95 147.73-18L147.73-18Q148.33-18.05 148.88-18.07 149.43-18.1 149.93-18.1L149.93-18.1Q152.03-18.1 151.93-17.9L151.93-17.9Q151.58-17.55 145.13-16.55L145.13-16.55Q139.68-6.25 139.68-2L139.68-2Q139.68-0.45 140.58-0.15L140.58-0.15Q141.28 0.05 144.13-2L144.13-2Q145.78-3.2 147.13-4.63 148.48-6.05 149.58-7.65L149.58-7.65Q149.93-8.15 150.23-8.15L150.23-8.15Q150.43-8.15 150.43-7.95L150.43-7.95Q150.43-7.75 150.18-7.35L150.18-7.35Q148.28-4.3 145.13-1.6L145.13-1.6Q142.08 1.05 141.18 0.85ZM159.78 0.55L159.78 0.55Q158.78 0.55 157.95-0.1 157.13-0.75 156.97-1.35L156.97-1.35Q156.83-2.05 158.83-6.35L158.83-6.35 157.68-4.7Q156.93-3.6 156.18-2.75 155.43-1.9 154.78-1.25L154.78-1.25Q152.88 0.55 151.58 0.25L151.58 0.25Q148.58-0.45 148.58-3.15L148.58-3.15Q148.58-5.3 150.63-8.65L150.63-8.65Q151.28-9.65 152.28-10.65 153.28-11.65 154.58-12.6L154.58-12.6Q157.93-15.05 161.03-15.05L161.03-15.05Q162.93-15.05 164.63-14.05L164.63-14.05Q165.18-13.65 165.18-13.2L165.18-13.2Q165.18-12.85 164.98-12.85L164.98-12.85Q164.93-12.85 164.88-12.9L164.88-12.9Q163.83-14.05 162.08-14.05L162.08-14.05Q160.03-14.05 157.63-12.5 155.22-10.95 153.33-8.35L153.33-8.35Q150.63-4.6 150.63-2.25L150.63-2.25Q150.63-0.9 151.58-0.55L151.58-0.55Q152.78-0.05 156.68-5L156.68-5Q158.28-6.95 159.35-8.5 160.43-10.05 161.08-11.15L161.08-11.15Q161.38-11.7 162.18-11.7L162.18-11.7Q163.68-11.7 163.68-10.8L163.68-10.8Q163.68-10.65 163.63-10.6L163.63-10.6Q159.28-3.7 159.28-1.25L159.28-1.25Q159.28-0.65 159.63-0.6L159.63-0.6Q160.68-0.3 163.13-2.15L163.13-2.15Q166.08-4.35 168.68-8L168.68-8Q169.23-8.75 169.68-8.75L169.68-8.75Q169.83-8.75 169.83-8.65L169.83-8.65Q169.83-8.4 169.38-7.7L169.38-7.7Q168.33-6.05 167.05-4.6 165.78-3.15 164.22-1.9L164.22-1.9Q162.03-0.05 160.63 0.4L160.63 0.4Q160.28 0.55 159.78 0.55Z" opacity="1" transform="matrix(1,0,0,1,0,0)" fill="#ffffff" class="wordmark-text-0" data-fill-palette-color="primary" id="text-0"></path></svg></g></svg></g></svg></g></svg></g><g></g></svg></g><defs></defs></svg><rect width="395.52" height="99.35367664670659" fill="none" stroke="none" visibility="hidden"></rect></g></svg></g></svg>