<?xml version="1.0" encoding="UTF-8"?>
<svg version="1.1" xmlns="http://www.w3.org/2000/svg" width="500" height="500">
<path d="M0 0 C165 0 330 0 500 0 C500 165 500 330 500 500 C335 500 170 500 0 500 C0 335 0 170 0 0 Z " fill="#FEFEFE" transform="translate(0,0)"/>
<path d="M0 0 C3.96 0 7.92 0 12 0 C12 4.29 12 8.58 12 13 C14.31 13 16.62 13 19 13 C19.495 15.475 19.495 15.475 20 18 C20.94875 17.195625 21.8975 16.39125 22.875 15.5625 C27.1001935 11.98027073 29.95884613 11.7338194 35.4453125 11.765625 C38.78062613 12.07161708 41.18771767 13.22382168 44 15 C44.33 14.34 44.66 13.68 45 13 C48.96 13 52.92 13 57 13 C57 24.55 57 36.1 57 48 C53.04 48 49.08 48 45 48 C44.67 47.01 44.34 46.02 44 45 C43.21625 45.66 42.4325 46.32 41.625 47 C37.35779017 49.83132406 32.94811023 49.82736259 28 49 C25.61128241 47.90843438 24.0548436 46.69524597 22 45 C21.01 44.505 21.01 44.505 20 44 C19.814375 44.9590625 19.814375 44.9590625 19.625 45.9375 C19.41875 46.618125 19.2125 47.29875 19 48 C15.27287842 49.86356079 11.0579268 49.56549975 7 49 C3.37468392 47.1258346 1.30878361 44.92635083 0 41 C-0.0806622 39.51876453 -0.10761193 38.03417796 -0.09765625 36.55078125 C-0.09443359 35.70322266 -0.09121094 34.85566406 -0.08789062 33.98242188 C-0.07532227 32.66081055 -0.07532227 32.66081055 -0.0625 31.3125 C-0.05798828 30.41982422 -0.05347656 29.52714844 -0.04882812 28.60742188 C-0.03704983 26.40488013 -0.02060164 24.20247401 0 22 C-0.99 22 -1.98 22 -3 22 C-2.505 22.99 -2.505 22.99 -2 24 C-0.63972733 37.12060475 -0.63972733 37.12060475 -4.625 42.6875 C-8.8428588 47.26829084 -12.72094454 49.12714247 -18.9375 49.4375 C-24.36183133 49.56980076 -25.57596813 48.09944678 -31 45 C-31 51.6 -31 58.2 -31 65 C-34.63 65 -38.26 65 -42 65 C-42 47.84 -42 30.68 -42 13 C-38.04 13 -34.08 13 -30 13 C-29.67 13.66 -29.34 14.32 -29 15 C-28.38125 14.505 -27.7625 14.01 -27.125 13.5 C-22.69184973 11.37208787 -18.83440324 11.18085754 -14 12 C-11.06940245 13.35911771 -8.54089277 15.01270957 -6 17 C-5.67 15.68 -5.34 14.36 -5 13 C-3.35 13 -1.7 13 0 13 C0 8.71 0 4.42 0 0 Z " fill="#040404" transform="translate(348,214)"/>
<path d="M0 0 C3.96 0 7.92 0 12 0 C12.33 10.56 12.66 21.12 13 32 C14.65 30.02 16.3 28.04 18 26 C21.92351779 22.63698475 25.57219666 22.56135955 30.55078125 22.6953125 C33.80342859 23.09994805 36.2454267 24.2602695 39 26 C39.33 25.34 39.66 24.68 40 24 C43.96 24 47.92 24 52 24 C52.07434992 29.72913803 52.12869672 35.45799301 52.16479492 41.1875 C52.17984899 43.13514094 52.2002968 45.08274816 52.22631836 47.03027344 C52.26285053 49.83537128 52.27976033 52.64001954 52.29296875 55.4453125 C52.30845261 56.31116974 52.32393646 57.17702698 52.33988953 58.06912231 C52.34129146 63.14493983 51.82746857 66.6078239 49 71 C43.40163818 76.47395378 38.81239239 78.07561663 31.125 78.375 C24.1355438 78.25359505 19.85300017 76.22673184 14.4375 72 C13 70 13 70 13.125 67.984375 C14 66 14 66 16.06640625 64.953125 C16.89011719 64.72109375 17.71382812 64.4890625 18.5625 64.25 C19.38878906 64.00765625 20.21507812 63.7653125 21.06640625 63.515625 C21.70449219 63.34546875 22.34257812 63.1753125 23 63 C23.40347656 63.48726563 23.80695313 63.97453125 24.22265625 64.4765625 C26.96990358 66.83134592 29.35099059 66.41569986 32.8359375 66.28515625 C35.72259682 65.90478417 37.17779108 65.29756777 39 63 C39.33425735 60.37374861 39.33425735 60.37374861 39 58 C38.18789062 58.47953125 38.18789062 58.47953125 37.359375 58.96875 C32.76774006 60.97568978 27.88760868 60.73126626 23 60 C18.58751043 57.80758747 15.7177031 55.07655465 13 51 C12.67 53.64 12.34 56.28 12 59 C8.04 59 4.08 59 0 59 C0 39.53 0 20.06 0 0 Z " fill="#040404" transform="translate(213,203)"/>
<path d="M0 0 C1.01964844 -0.00515625 2.03929688 -0.0103125 3.08984375 -0.015625 C6.11582204 0.25476465 8.32075647 0.97758864 11.0625 2.25 C10.51526317 5.62462715 10.0076 7.33235 8.0625 10.25 C2.6175 9.755 2.6175 9.755 -2.9375 9.25 C-2.27548171 12.41129253 -2.27548171 12.41129253 0.3125 13.3828125 C1.22 13.71023437 2.1275 14.03765625 3.0625 14.375 C7.99523543 16.18273543 7.99523543 16.18273543 9.0625 17.25 C9.23265625 16.65832031 9.4028125 16.06664062 9.578125 15.45703125 C11.4542723 9.33959352 13.27642975 5.12897761 18.75 1.4375 C24.40177601 -0.58860838 29.56921046 -0.61177288 35.125 1.75 C36.5790625 2.4925 36.5790625 2.4925 38.0625 3.25 C38.0625 2.59 38.0625 1.93 38.0625 1.25 C42.3525 1.25 46.6425 1.25 51.0625 1.25 C51.0625 12.8 51.0625 24.35 51.0625 36.25 C47.1025 36.25 43.1425 36.25 39.0625 36.25 C38.7325 35.26 38.4025 34.27 38.0625 33.25 C37.1653125 33.9615625 37.1653125 33.9615625 36.25 34.6875 C31.90442996 37.7914786 27.21909209 38.01517173 22.0625 37.25 C18.21317062 35.49554375 15.04678062 33.23428062 12.0625 30.25 C11.546875 31.03375 11.03125 31.8175 10.5 32.625 C6.89966304 36.50228595 3.55673595 37.04698079 -1.625 37.46875 C-7.05918201 37.64595159 -11.39448835 37.59748227 -15.9375 34.25 C-17.0625 32.4375 -17.0625 32.4375 -16.9375 30.25 C-15 27 -15 27 -12.9375 24.25 C-12.07125 24.724375 -11.205 25.19875 -10.3125 25.6875 C-7.08362626 27.18234895 -4.44716174 27.83218313 -0.9375 28.25 C-1.06517931 26.31430781 -1.06517931 26.31430781 -1.9375 24.25 C-4.14107806 22.81798303 -4.14107806 22.81798303 -6.8125 21.75 C-10.59185539 20.11925773 -12.84395318 18.8630566 -14.9375 15.25 C-15.33143831 12.14773577 -15.57299198 10.20974505 -14.9375 7.25 C-10.65753541 1.78115635 -6.83238929 -0.0344635 0 0 Z " fill="#080808" transform="translate(92.9375,225.75)"/>
<path d="M0 0 C1.76953125 1.53125 1.76953125 1.53125 3 3 C3.61875 2.690625 4.2375 2.38125 4.875 2.0625 C9.69035578 -0.34517789 13.61463984 -0.49406974 19 0 C22.625 1.5 22.625 1.5 25 3 C25.33 2.34 25.66 1.68 26 1 C29.96 1 33.92 1 38 1 C38 12.55 38 24.1 38 36 C34.04 36 30.08 36 26 36 C25.67 35.34 25.34 34.68 25 34 C24.21625 34.495 23.4325 34.99 22.625 35.5 C17.89752012 37.45619857 14.04409775 37.94187628 9 37 C3.61135475 34.48099289 -0.01438409 30.58412844 -2.38671875 25.16015625 C-3.59613894 20.90022398 -4.01608891 16.03217781 -2 12 C-3.6026782 11.89175157 -5.20745748 11.81429355 -6.8125 11.75 C-8.15248047 11.68039063 -8.15248047 11.68039063 -9.51953125 11.609375 C-12.10348912 11.75651025 -12.10348912 11.75651025 -13.62304688 13.7265625 C-15.1779761 16.2938499 -15.41633576 17.78967569 -15.51171875 20.765625 C-15.54716797 21.65507812 -15.58261719 22.54453125 -15.61914062 23.4609375 C-15.65297852 24.84152344 -15.65297852 24.84152344 -15.6875 26.25 C-15.72166016 27.18585938 -15.75582031 28.12171875 -15.79101562 29.0859375 C-15.87331102 31.39020846 -15.93833713 33.69508463 -16 36 C-19.96 36 -23.92 36 -28 36 C-28 24.45 -28 12.9 -28 1 C-24.04 1 -20.08 1 -16 1 C-15.67 2.32 -15.34 3.64 -15 5 C-14.195625 4.175 -13.39125 3.35 -12.5625 2.5 C-8.78191016 -0.66849434 -4.76424808 -1.08897099 0 0 Z " fill="#040404" transform="translate(173,226)"/>
<path d="M0 0 C3.96 0 7.92 0 12 0 C12.04898437 1.63710937 12.09796875 3.27421875 12.1484375 4.9609375 C12.22345639 7.098976 12.2990046 9.23699598 12.375 11.375 C12.4059375 12.45523438 12.436875 13.53546875 12.46875 14.6484375 C12.50742187 15.6796875 12.54609375 16.7109375 12.5859375 17.7734375 C12.6173584 18.72653809 12.6487793 19.67963867 12.68115234 20.66162109 C12.78555796 23.18895176 12.78555796 23.18895176 15 25 C18.5 25.41666667 18.5 25.41666667 22 25 C24.15749784 21.76375324 24.28360488 20.65605934 24.4140625 16.89453125 C24.45273437 15.91162109 24.49140625 14.92871094 24.53125 13.91601562 C24.5621875 12.89185547 24.593125 11.86769531 24.625 10.8125 C24.66367187 9.77673828 24.70234375 8.74097656 24.7421875 7.67382812 C24.83647869 5.11617973 24.91932918 2.55811422 25 0 C28.96 0 32.92 0 37 0 C37.16232314 4.35567099 37.28110373 8.70526595 37.375 13.0625 C37.42527344 14.29162109 37.47554688 15.52074219 37.52734375 16.78710938 C37.69314434 27.03911239 37.69314434 27.03911239 34.20703125 31.28125 C29.52512497 35.93139701 23.74967149 36.08775386 17.5 36.3125 C11.63716633 36.19035763 6.31674541 35.39147913 2.0625 31 C0.05445749 27.22015527 -0.11820745 24.23252781 -0.09765625 20.01953125 C-0.09443359 18.85615234 -0.09121094 17.69277344 -0.08789062 16.49414062 C-0.07951172 15.27919922 -0.07113281 14.06425781 -0.0625 12.8125 C-0.05798828 11.58595703 -0.05347656 10.35941406 -0.04882812 9.09570312 C-0.03703076 6.06378135 -0.01909514 3.0318846 0 0 Z " fill="#060606" transform="translate(267,227)"/>
<path d="M0 0 C1.58203125 1.46875 1.58203125 1.46875 3 3 C4.485 3.495 4.485 3.495 6 4 C4.71034824 5.37562854 3.37310707 6.70766393 2 8 C1.34 8 0.68 8 0 8 C-0.33 9.65 -0.66 11.3 -1 13 C-1.99 12.67 -2.98 12.34 -4 12 C-5.95376121 11.7314321 -5.95376121 11.7314321 -8 11.6875 C-9.0209375 11.63142578 -9.0209375 11.63142578 -10.0625 11.57421875 C-12.15849292 11.84059072 -12.15849292 11.84059072 -13.58911133 13.72875977 C-15.18630101 16.29990627 -15.41559803 17.76665854 -15.51171875 20.765625 C-15.54716797 21.65507812 -15.58261719 22.54453125 -15.61914062 23.4609375 C-15.65297852 24.84152344 -15.65297852 24.84152344 -15.6875 26.25 C-15.72166016 27.18585938 -15.75582031 28.12171875 -15.79101562 29.0859375 C-15.87331102 31.39020846 -15.93833713 33.69508463 -16 36 C-19.96 36 -23.92 36 -28 36 C-28 24.45 -28 12.9 -28 1 C-24.04 1 -20.08 1 -16 1 C-15.67 2.32 -15.34 3.64 -15 5 C-14.195625 4.175 -13.39125 3.35 -12.5625 2.5 C-8.78191016 -0.66849434 -4.76424808 -1.08897099 0 0 Z " fill="#0A0A0A" transform="translate(173,226)"/>
<path d="M0 0 C3.8425303 0.72047443 5.45767292 1.57152696 8 4.5625 C8.7975483 9.58705429 8.82360163 11.39976829 5.875 15.5625 C3 17.5625 3 17.5625 0 18.25 C-4.35321372 17.25238852 -5.65945491 15.27983632 -8 11.5625 C-8.625 8.5 -8.625 8.5 -8 5.5625 C-5.53959272 2.23371368 -4.10389613 0.76948052 0 0 Z " fill="#F3F3F3" transform="translate(245,235.4375)"/>
<path d="M0 0 C3.8425303 0.72047443 5.45767292 1.57152696 8 4.5625 C8.7975483 9.58705429 8.82360163 11.39976829 5.875 15.5625 C3 17.5625 3 17.5625 0 18.25 C-4.35321372 17.25238852 -5.65945491 15.27983632 -8 11.5625 C-8.625 8.5 -8.625 8.5 -8 5.5625 C-5.53959272 2.23371368 -4.10389613 0.76948052 0 0 Z " fill="#F3F3F3" transform="translate(191,235.4375)"/>
<path d="M0 0 C3.71317907 1.14770989 5.2692056 1.85342428 7.4375 5.0625 C7.92126933 8.93265465 7.73301985 11.84877221 5.4375 15.0625 C2.76116974 17.1440902 1.31996332 17.05837591 -2.125 16.9375 C-5.5625 16.0625 -5.5625 16.0625 -7.5 14.4375 C-9.0215889 11.03630129 -9.07999792 8.74967269 -8.5625 5.0625 C-5.90798953 1.20139386 -4.7398766 0.08315573 0 0 Z " fill="#F5F5F5" transform="translate(385.5625,235.9375)"/>
<path d="M0 0 C2.5 2.125 2.5 2.125 4 5 C4.07481382 9.26438773 3.64839572 11.23718151 0.875 14.5 C-2.91613014 16.47798094 -4.92797973 16.13111674 -9 15 C-11.11130276 13.38951789 -11.89153752 12.4907927 -12.46875 9.87890625 C-12.52426701 5.76370783 -12.54853806 3.69813934 -9.9375 0.375 C-6.05118362 -1.44412682 -4.0801632 -1.26114135 0 0 Z " fill="#F4F4F4" transform="translate(330,237)"/>
<path d="M0 0 C2.5 2.125 2.5 2.125 4 5 C4.07481382 9.26438773 3.64839572 11.23718151 0.875 14.5 C-2.91613014 16.47798094 -4.92797973 16.13111674 -9 15 C-11.11130276 13.38951789 -11.89153752 12.4907927 -12.46875 9.87890625 C-12.52426701 5.76370783 -12.54853806 3.69813934 -9.9375 0.375 C-6.05118362 -1.44412682 -4.0801632 -1.26114135 0 0 Z " fill="#F4F4F4" transform="translate(128,237)"/>
<path d="M0 0 C3.39470755 1.15564512 4.87501175 2.06492057 6.9375 5 C7.5 7.9375 7.5 7.9375 6.9375 11 C4.48155875 14.32274404 3.0118356 15.77618008 -1.0625 16.625 C-5.17539267 15.76814736 -6.65936932 14.42264067 -9.0625 11 C-9.2144185 6.67032286 -8.73561337 4.76927242 -5.875 1.5 C-3.0625 0 -3.0625 0 0 0 Z " fill="#0C0C0C" transform="translate(415.0625,247)"/>
<path d="M0 0 C1.65 0 3.3 0 5 0 C5 5.28 5 10.56 5 16 C3.35 15.67 1.7 15.34 0 15 C0 10.05 0 5.1 0 0 Z " fill="#F2F2F2" transform="translate(360,236)"/>
<path d="M0 0 C0.99 0 1.98 0 3 0 C3 5.28 3 10.56 3 16 C0.65229357 12.47844036 0.62330386 10.49228157 0.375 6.3125 C0.30023438 5.13300781 0.22546875 3.95351562 0.1484375 2.73828125 C0.09945313 1.83464844 0.05046875 0.93101562 0 0 Z " fill="#ACACAC" transform="translate(345,236)"/>
</svg>
